<svg enable-background="new 0 0 203.999 70.482" height="70.482" viewBox="0 0 203.999 70.482" width="203.999" xmlns="http://www.w3.org/2000/svg"><g fill="#121210" transform="matrix(.13333333 0 0 -.13333333 0 333.33333)"><path d="m1374.082 2392.341c0 12.62 5.94 18.56 18.56 18.56h14.846c12.634 0 18.56-5.94 18.56-18.56v-313.301c0-12.627-5.925-18.56-18.56-18.56h-14.846c-12.62 0-18.56 5.933-18.56 18.56zm-7.434-420.959h66.834c64.585 0 96.511 31.926 96.511 96.519v335.581c0 64.592-31.926 96.519-96.511 96.519h-66.834c-64.578 0-96.511-31.926-96.511-96.519v-335.582c0-64.585 31.933-96.518 96.511-96.518"/><path d="m1047.891 1971.382h63.845c64.592 0 96.533 31.926 96.533 96.519v96.921h-102.473v-85.781c0-12.627-5.94-18.56-18.56-18.56h-13.359c-12.627 0-18.545 5.933-18.545 18.56v313.301c0 12.62 5.918 18.56 18.545 18.56h11.895c12.605 0 18.545-5.94 18.545-18.56v-72.729h102.451v83.87c0 64.592-31.912 96.519-96.511 96.519h-62.366c-64.592 0-96.511-31.926-96.511-96.519v-335.583c0-64.592 31.918-96.518 96.511-96.518"/><path d="m442.515 2368.589 23.02-226.45h-46.033zm-32.674-317.014h65.339l8.159-75.732h103.213l-68.312 519.697h-141.804l-68.298-519.697h94.285z"/><path d="m747.393 2406.455h22.266c12.62 0 18.574-5.94 18.574-18.567v-123.984c0-12.62-5.955-18.56-18.574-18.56h-22.266zm0-250.203h48.259c64.6 0 96.519 31.919 96.519 96.519v146.25c0 64.6-31.919 96.519-96.519 96.519h-152.205v-519.697h103.945v180.409"/><path d="m96.526 1971.382h63.845c64.592 0 96.519 31.926 96.519 96.519v96.921h-102.459v-85.781c0-12.627-5.933-18.56-18.56-18.56h-13.367c-12.62 0-18.56 5.933-18.56 18.56v313.301c0 12.62 5.94 18.56 18.56 18.56h11.88c12.62 0 18.56-5.94 18.56-18.56v-72.729h102.458v83.87c0 64.592-31.926 96.519-96.519 96.519h-62.357c-64.6-.002-96.526-31.928-96.526-96.521v-335.581c0-64.592 31.926-96.518 96.526-96.518"/></g></svg>