<svg enable-background="new 0 0 266 100" height="205.05107" viewBox="0 0 1024.0159 205.05107" width="1024.0159" xmlns="http://www.w3.org/2000/svg"><g fill="#3b5998"><path d="m533.68944 99.64858c-8.56058 0-14.73149 2.80666-20.98681 5.66722v64.70575c5.99291.57164 9.42745.57164 15.11573.57164 20.54636 0 23.36243-9.40868 23.36243-22.54708v-30.90621c0-9.69918-3.21901-17.49132-17.49135-17.49132zm-136.44691-3.530598c-14.25356 0-17.51005 7.827288-17.51005 17.517098v5.44466h34.99904v-5.44466c0-9.68981-3.25183-17.517098-17.48899-17.517098zm-264.32387 67.353098c0 7.66564 3.61728 11.6484 11.60154 11.6484 8.56527 0 13.63508-2.79262 19.88568-5.6602v-15.35002h-18.72833c-8.86281 0-12.75889 1.64933-12.75889 9.36182zm533.49966-63.8225c-14.27699 0-19.22498 7.79214-19.22498 17.49132v35.40437c0 9.7273 4.94799 17.54288 19.22498 17.54288 14.23955 0 19.22501-7.81558 19.22501-17.54288v-35.40437c0-9.69918-4.98546-17.49132-19.22501-17.49132zm-603.472008 103.51888h-41.971231v-101.59545h-20.975081v-35.00843h20.975081v-21.019583c0-28.561055 11.838157-45.54399758 45.480734-45.54399758h28.010498v35.01546458h-17.507732c-13.098584 0-13.960734 4.891758-13.960734 14.023984l-.05156 17.524132h31.716809l-3.710995 35.00843h-28.005814v101.59545zm143.447178.2624h-34.98031l-1.51579-8.8464c-15.9732 8.8464-30.22912 10.28021-39.63313 10.28021-25.65363 0-39.312146-17.13992-39.312146-40.83967 0-27.96363 15.933376-37.94396 44.440546-37.94396h29.01322v-6.04442c0-14.26998-1.63529-18.4636-23.58497-18.4636h-35.88931l3.5095-35.008427h39.23016c48.16325 0 58.72223 15.214127 58.72223 53.753167zm118.95793-99.29013c-21.76928-3.72975-28.01986-4.549716-38.49451-4.549716-18.81503 0-24.50099 4.151426-24.50099 20.126966v30.22211c0 15.97788 5.68596 20.14806 24.50099 20.14806 10.47465 0 16.72523-.83403 38.49451-4.58251v34.14862c-19.06803 4.27327-31.48955 5.39781-41.98998 5.39781-45.06371 0-62.97675-23.69975-62.97675-57.93271v-24.52442c0-34.263425 17.91303-58.002991 62.97675-58.002991 10.50043 0 22.92195 1.129229 41.98998 5.421231zm131.35134 42.97863h-76.97028v2.82073c0 15.97788 5.69063 20.14806 24.50095 20.14806 16.9103 0 27.23034-.83403 48.95979-4.58251v34.14862c-20.95629 4.27327-31.87608 5.39781-52.43885 5.39781-45.06603 0-62.98845-23.69975-62.98845-57.93271v-28.03862c0-29.952673 13.29772-54.488791 59.47661-54.488791s59.46023 24.250304 59.46023 54.488791zm136.44222.6466c0 33.08969-9.45553 57.22051-66.74632 57.22051-20.68693 0-32.82259-1.81801-55.65552-5.33221v-189.141127l41.95949-7.0026306v66.1606336c9.06663-3.368951 20.80406-5.079187 31.48721-5.079187 41.96423 0 48.95514 18.812661 48.95514 49.044131zm134.50472.72159c0 28.54465-11.78427 56.22716-61.09081 56.22716-49.32995 0-61.33444-27.68251-61.33444-56.22716v-27.56068c0-28.558702 12.00449-56.245903 61.33444-56.245903 49.30654 0 61.09081 27.687201 61.09081 56.245903zm134.411 0c0 28.54465-11.79831 56.22716-61.09545 56.22716-49.32995 0-61.3345-27.68251-61.3345-56.22716v-27.56068c0-28.558702 12.00455-56.245903 61.3345-56.245903 49.29714 0 61.09545 27.687201 61.09545 56.245903zm137.9393 54.68091h-45.48306l-38.4641-64.21141v64.21141h-41.97355v-192.655327l41.97355-7.0026306v124.0230576l38.4641-60.96898h45.48306l-41.99234 66.53547zm-199.17534-103.51888c-14.25356 0-19.20155 7.79214-19.20155 17.49132v35.40437c0 9.7273 4.94799 17.54288 19.20155 17.54288 14.23486 0 19.27185-7.81558 19.27185-17.54288v-35.40437c0-9.69918-5.03699-17.49132-19.27185-17.49132z"/><path d="m1014.0664 183.29956c5.5365 0 9.9495 4.51584 9.9495 10.15513 0 5.7274-4.413 10.19184-9.9899 10.19184-5.5475 0-10.0487-4.46444-10.0487-10.19184 0-5.63929 4.5012-10.15513 10.0487-10.15513h.04zm-.04 1.57871c-4.4608 0-8.1138 3.8403-8.1138 8.57642 0 4.82423 3.653 8.61313 8.1541 8.61313 4.5049.0441 8.1029-3.7889 8.1029-8.56908s-3.598-8.62047-8.1029-8.62047h-.04zm-1.8945 14.48739h-1.8063v-11.32998c.9472-.13218 1.8504-.26433 3.2015-.26433 1.7145 0 2.8343.35979 3.5208.85177.6646.49931 1.0244 1.26296 1.0244 2.34236 0 1.49794-.984 2.39376-2.1992 2.7609v.0881c.9876.18357 1.6631 1.07939 1.8908 2.74621.2643 1.76228.536 2.43782.7159 2.80496h-1.8908c-.268-.36715-.5397-1.40248-.7673-2.89307-.2643-1.43919-.9913-1.98256-2.4378-1.98256h-1.252v4.87563zm0-6.27077h1.307c1.4796 0 2.7389-.54337 2.7389-1.94585 0-.99128-.7159-1.98256-2.7389-1.98256-.5911 0-.9986.0441-1.307.0881v3.8403z"/></g></svg>