<svg height="104" viewBox="0 0 500 104" width="500" xmlns="http://www.w3.org/2000/svg" xmlns:xlink="http://www.w3.org/1999/xlink"><mask id="a" fill="#fff"/><mask id="b" fill="#fff"/><mask id="c" fill="#fff"/><mask id="d" fill="#fff"/><g fill="none"><g transform="translate(427.594218 15.358802)"><path d="m.08907587.03896846c-.00765175.2634501-.01635561.52661374-.01635561.79235554-.69783907 23.944931 36.34808064 46.1485513 36.34808064 46.1485513s2.5853331-1.5643722 6.3702683-4.3100208z" fill="#7959a1" mask="url(#a)" transform="translate(0 21.166753)"/><path d="m.12906557 21.0715534 42.63344693 42.6868359c2.6527074-1.9300411 5.8959453-4.4437029 9.2509103-7.407319l-48.0308219-48.09087412c-2.29709056 3.54417722-3.71306474 7.97717152-3.85353533 12.81135722" fill="#0eb4e9"/><path d="m13.0726005.90345896c-3.68879189 1.26140069-6.88862938 3.91578499-9.20063354 7.46995571l48.14650774 48.02823733c2.8100524-2.4729565 5.6975448-5.260165 8.3842099-8.28428z" fill="#76b72a"/><path d="m60.5306409 48.0123903c2.6534484-2.9830276 5.1082161-6.1968405 7.0997153-9.5667053l-29.4386287-29.3309101c-1.0941797 2.3267501-1.7120628 5.1163114-1.7120628 8.4008487 0-12.07604109-8.4951728-17.5156236-18.4316896-17.5156236-1.6947237 0-3.331012.28977001-4.8832874.81996514z" fill="#ffe600"/><path d="m67.5571807 38.590604c2.2691584-3.8635122 3.9338702-7.9309922 4.5904703-12.0933699l-25.1434703-25.20657845c-3.850386 1.40258921-6.9864783 3.99058513-8.8007734 7.87229173z" fill="#f08803"/><path d="m54.6680068 0c-2.7351324 0-5.3430738.41708952-7.688141 1.27155372l25.1164643 25.18688718c.2368254-1.5016754.3438835-3.0153113.2997053-4.5362194 0-12.10631283-7.8307897-21.9222215-17.7280286-21.9222215" fill="#eb6242"/></g><g fill="#2fb153"><path d="m298.183767 39.8055843c1.675644-7.6627778 7.186756-12.3308281 14.975379-12.3308281 6.215034 0 11.24429 5.0275881 11.488189 12.3308281zm14.975379-24.0595853c-18.326149 0-31.02182 13.1643253-31.02182 31.9663166 0 17.3474388 12.57708 31.5339415 32.814375 31.5339415 15.206746 0 24.547255-9.2047608 24.547255-9.2047608l-6.355846-10.5371427s-7.292944 6.8215317-17.11505 6.8215317c-9.214037 0-17.12138-5.2131685-18.32589-15.9911652h42.158242s.356418-3.8204763.356418-5.6188108c0-16.1608609-9.582986-28.9699103-27.057684-28.9699103z"/><path d="m30.7221089 48.5203149c-9.8100155 0-15.1895973-7.8959731-15.1895973-18.5530459 0-10.2839443 5.0325245-16.9854156 14.2377388-16.9854156 8.259809 0 15.1959215 3.7181208 15.1959215 17.5904749 0 13.7516779-6.9361125 17.9479866-14.244063 17.9479866zm22.1414559-47.0209086c-4.7902685 0-6.6969541 2.87403201-6.6969541 5.62493547v1.55188435h-.2498709s-4.6547496-8.60983479-18.7781363-8.60983479c-17.57795559 0-27.03639648 13.63913267-27.03639648 30.38229217 0 16.7525813 9.93056268 30.8745483 27.39713478 30.8745483 8.132034 0 13.3988126-2.7583893 16.9886422-7.8986835h.242127s-.1202891 1.7911719-.1202891 3.2320599v2.8600929c0 11.0043882-8.0265875 14.9599897-17.232189 14.9599897-9.3335054 0-16.8651264-4.0653072-16.8651264-4.0653072l-4.66675276 11.962571c5.86073826 3.116288 13.99561176 5.2590346 21.65358806 5.2590346 15.9025555 0 32.1845637-7.8941663 32.1845637-28.8244709v-41.9959989c0-1.547238 1.0658235-2.3926175 2.6316469-2.3926175h4.659396v-12.9204956z" mask="url(#b)" transform="translate(344.734125 15.745999)"/><path d="m41.5366417.06640423c-8.5713732 0-15.5311048 3.66894683-19.5372999 10.42281877.0072276-.2567114.0125193-.82447081.0125193-1.09796074v-1.67681982c0-4.30704698-2.7472896-6.81582344-8.0126484-6.81582344h-13.99922561v12.8016262h4.78252453c1.66933402 0 2.63655136.9472122 2.63655136 2.6272587v45.5823438h15.23399592v-33.1784977c0-9.8950697 4.9328859-15.8616417 14.5369127-15.8616417 8.5860867 0 11.9374032 5.0933144 11.9374032 13.8245999v35.2155395h15.2341249v-36.379969c0-16.58970059-9.4368869-25.46347447-22.824858-25.46347447" mask="url(#c)" transform="translate(0 15.745999)"/><path d="m141.192398 62.2237093v-21.2308983c0-15.5764068-8.505421-25.18508-22.708054-25.18508-8.750774 0-15.790526 3.1484254-20.5250384 10.4274652-3.1553949-7.4243676-8.8944243-10.4274652-17.6453278-10.4274652-7.6686887 0-13.7867837 2.8631905-17.8062726 10.4274652.0285235-.6617192.0574342-.358286.0574342-1.025555v-1.799174c0-4.2976252-2.6304853-6.765746-8.0144554-6.765746l-17.4787041.0055498h-13.8722251v-16.63680946h-14.84279817v16.63680946h-8.24419205v12.1890811h7.88951988v26.6835312c0 20.450697 16.86822404 22.9651523 25.36370674 22.9651523 2.7541301 0 4.6654621-.3611254 4.6654621-.3611254v-13.2765875s-1.0751162.2346412-2.745999.2346412c-4.1902426 0-12.0856995-1.4318534-12.0856995-11.4870935v-24.7585183h22.1453278c1.6690759 0 2.6362932.946954 2.6365514 2.6263552v46.1901136h.3159525 14.9181724v-33.6086732c0-10.1906299 4.1639133-15.4314662 12.7709086-15.4314662 8.320728 0 10.9837378 4.6586215 10.9837378 13.1020908v35.9380486h15.2337377v-.0028395-33.6058337c0-10.1906299 4.163913-15.4314662 12.770909-15.4314662 8.320728 0 10.983737 4.6586215 10.983737 13.1020908v27.8017553c0 5.7339959 2.392618 8.1362933 8.137842 8.1362933h14.40062v-12.8094993h-4.671399c-1.676949 0-2.633454-.9485028-2.633454-2.6226123" mask="url(#d)" transform="translate(133.711926)"/><path d="m127.836841 62.2162617v-45.5668038h-15.243849v33.1672804c0 9.8917243-4.936419 15.8561501-14.5465621 15.8561501-8.5916568 0-11.9451977-5.0915925-11.9451977-13.8199261v-35.2035044h-15.2442368v36.3675403c0 16.5840918 9.4430216 25.4548655 22.8398793 25.4548655 8.5768043 0 15.5414133-3.6677064 19.5498803-10.4192949-.006974.2567536-.01214.824192-.01214 1.0975896v1.6762528c0 4.3055909 2.749242 6.8136482 8.018096 6.8136482h14.008001v-12.7972982h-4.78557c-1.670183 0-2.638301-.9468919-2.638301-2.6264995"/></g></g></svg>