<svg viewBox="0 0 1083.04 555.67" xmlns="http://www.w3.org/2000/svg"><circle cx="540.47" cy="187.18" fill="#7433ff" r="187.18"/><g transform="translate(-109.17 -146.73)"><path d="m593.31 333.55h22.89a89.74 89.74 0 0 1 89.74-89.74v-22.9a112.63 112.63 0 0 0 -112.63 112.64z" fill="#fff"/><path d="m706 333.55h-22.9a89.77 89.77 0 0 1 -89.77 89.77v22.91a112.67 112.67 0 0 0 112.67-112.68z" fill="#fff"/><path d="m156.72 649a39.53 39.53 0 0 0 -9-4.24 32 32 0 0 0 -9.81-1.51 24.88 24.88 0 0 0 -6.13.7 15.08 15.08 0 0 0 -4.76 2 9.78 9.78 0 0 0 -3.09 3.16 7.87 7.87 0 0 0 -1.1 4.14 6.46 6.46 0 0 0 1 3.59 7.64 7.64 0 0 0 2.75 2.51 17.48 17.48 0 0 0 4.38 1.7 55 55 0 0 0 5.84 1.15l4.64.63a50.29 50.29 0 0 1 8 1.77 24.17 24.17 0 0 1 6.92 3.35 16.57 16.57 0 0 1 4.89 5.41 15.89 15.89 0 0 1 1.84 7.9 18.46 18.46 0 0 1 -2.16 9.05 19.87 19.87 0 0 1 -5.93 6.69 27.24 27.24 0 0 1 -8.54 4.07 37.62 37.62 0 0 1 -10.32 1.38 45.85 45.85 0 0 1 -7.06-.57 48.65 48.65 0 0 1 -7.23-1.7 43.12 43.12 0 0 1 -6.83-2.8 29.54 29.54 0 0 1 -5.84-3.93l5.89-8.61a22.1 22.1 0 0 0 4.14 2.92 36.81 36.81 0 0 0 11 3.9 33.17 33.17 0 0 0 5.91.55 26.65 26.65 0 0 0 6.15-.67 16.7 16.7 0 0 0 5-2 10.56 10.56 0 0 0 3.33-3.13 7.37 7.37 0 0 0 1.22-4.14 6.5 6.5 0 0 0 -3.86-6q-3.85-2.06-11.23-3.06l-5.21-.72a41.54 41.54 0 0 1 -7.31-1.72 21.41 21.41 0 0 1 -6.36-3.38 16.21 16.21 0 0 1 -4.5-5.46 17 17 0 0 1 -1.7-8 18.65 18.65 0 0 1 2.08-8.93 19.53 19.53 0 0 1 5.67-6.56 26.39 26.39 0 0 1 8.41-4.05 37 37 0 0 1 10.19-1.39 42.09 42.09 0 0 1 13.23 2 45.15 45.15 0 0 1 11 5.29zm91.69-4.6h-21.69v56.79h-10.82v-56.77h-21.69v-10.24h54.2zm88.86 56.79h-11.63l-6.64-17.08h-30.33l-6.6 17.1h-11.26l26.48-67h13.5zm-44.62-27.34h22.41l-11.21-28.85zm106.67-39.69q11.64 0 17.7 5t6.05 14.41a18.69 18.69 0 0 1 -1.58 7.78 17.28 17.28 0 0 1 -4.47 6 21.49 21.49 0 0 1 -7 4 31.15 31.15 0 0 1 -9.27 1.66l22.07 28.2h-13.4l-21.42-28.21h-5.45v28.2h-10.81v-67zm-16.75 10.15v18.86h16.43q6.56 0 9.67-2.37t3.11-7.25q0-4.79-3.18-7t-9.6-2.22zm126.73 56.9h-47.92v-67h10.82v56.79h37.1zm45.68 0h-10.82v-67h10.84zm100.16 0h-9.76l-37.38-48.5-.05 48.5h-10.84v-67h9.77l37.44 48.5v-48.5h10.82zm73.59-68.28a36.92 36.92 0 0 1 14.7 2.85 31.72 31.72 0 0 1 11.26 8l-8 7.71a22.63 22.63 0 0 0 -7.76-6 23.65 23.65 0 0 0 -10.25-2.18 25 25 0 0 0 -9.48 1.77 22 22 0 0 0 -7.51 5 23 23 0 0 0 -5 7.71 26.48 26.48 0 0 0 -1.79 9.91 26.84 26.84 0 0 0 1.77 9.91 22.72 22.72 0 0 0 4.91 7.71 22 22 0 0 0 7.37 5 23.67 23.67 0 0 0 9.22 1.77q9.18 0 14.5-4.52t6.61-12.86h-17.67v-10h29.49c0 .44.06.88.07 1.29s0 .85 0 1.29a41.06 41.06 0 0 1 -2.17 13.55 33 33 0 0 1 -6.49 11.16 30.49 30.49 0 0 1 -10.37 7.59 33 33 0 0 1 -13.88 2.8 36.64 36.64 0 0 1 -8.57-1 36.15 36.15 0 0 1 -8.1-3 34.66 34.66 0 0 1 -7.13-4.93 31.2 31.2 0 0 1 -5.7-6.8 34.32 34.32 0 0 1 -3.76-8.66 37.22 37.22 0 0 1 -1.36-10.34 36.19 36.19 0 0 1 2.63-13.93 32.63 32.63 0 0 1 18.41-18.24 37.25 37.25 0 0 1 14.05-2.56zm146.75 1.25a47.25 47.25 0 0 1 10 1 23.31 23.31 0 0 1 7.95 3.16 15.6 15.6 0 0 1 5.27 5.65 17.33 17.33 0 0 1 1.91 8.45 15.21 15.21 0 0 1 -3 9.1 14.39 14.39 0 0 1 -3.27 3.2 13.38 13.38 0 0 1 -4.1 2 17.69 17.69 0 0 1 4.55 2.1 16.16 16.16 0 0 1 6.37 7.88 15 15 0 0 1 1 5.39 19.47 19.47 0 0 1 -1.78 8.64 15.52 15.52 0 0 1 -5.05 5.94 23 23 0 0 1 -7.9 3.44 43.84 43.84 0 0 1 -10.43 1.08h-27.51v-67zm-15.17 10.15v18h14.84a45.63 45.63 0 0 0 5.36-.31 13.9 13.9 0 0 0 4.49-1.22 7.63 7.63 0 0 0 3.09-2.76 8.87 8.87 0 0 0 1.15-4.81 8.46 8.46 0 0 0 -1.15-4.64 7.47 7.47 0 0 0 -3.12-2.71 14.6 14.6 0 0 0 -4.52-1.24 44.18 44.18 0 0 0 -5.39-.31zm0 28.15v18.58h16.23a39.69 39.69 0 0 0 5.82-.39 13 13 0 0 0 4.47-1.41 7.23 7.23 0 0 0 2.9-2.85 9.63 9.63 0 0 0 1-4.74 9.29 9.29 0 0 0 -1-4.62 7.24 7.24 0 0 0 -2.9-2.8 13.66 13.66 0 0 0 -4.47-1.39 41.21 41.21 0 0 0 -5.82-.38zm138.61 28.73h-11.64l-6.6-17.1h-30.36l-6.61 17.1h-11.25l26.48-67h13.5zm-44.62-27.34h22.4l-11.2-28.87zm137.12 27.34h-9.76l-37.4-48.5v48.5h-10.82v-67h9.77l37.44 48.5v-48.5h10.82zm59.42-28.59h-6.46v28.59h-10.82v-67h10.82v28.2h6.62l25.18-28.2h14l-30.18 32.67 32.22 34.33h-14.7z" fill="#6a737b"/></g></svg>