<svg height="81" viewBox="0 0 78.8 80.8" width="79" xmlns="http://www.w3.org/2000/svg"><path d="m40.9 73c2.2 0 3.9 1.8 3.9 3.9s-1.8 3.9-3.9 3.9c-2.2 0-3.9-1.8-3.9-3.9s1.8-3.9 3.9-3.9z" fill="#a4cd39"/><path d="m40.9 0c3.2 0 5.8 2.6 5.8 5.8s-2.6 5.8-5.8 5.8-5.8-2.6-5.8-5.8 2.6-5.8 5.8-5.8z" fill="#e90d8c"/><path d="m74.2 41.4c0-1.3 1-2.3 2.3-2.3s2.3 1 2.3 2.3-1 2.3-2.3 2.3-2.3-1-2.3-2.3z" fill="#8680bc"/><path d="m0 41.4c0-3 2.4-5.4 5.4-5.4s5.4 2.4 5.4 5.4-2.4 5.4-5.4 5.4-5.4-2.5-5.4-5.4z" fill="#f6943e"/><path d="m63.9 64.4c1.2-1.2 3.1-1.2 4.3 0s1.2 3.1 0 4.3-3.1 1.2-4.3 0-1.2-3.2 0-4.3z" fill="#4fbfac"/><path d="m11.7 12.1c2.3-2.3 5.9-2.3 8.2 0s2.3 5.9 0 8.2-5.9 2.3-8.2 0c-2.3-2.2-2.3-5.9 0-8.2z" fill="#ec1c3c"/><path d="m65 17.3c-.6-.6-.6-1.5 0-2.1s1.5-.6 2.1 0 .6 1.5 0 2.1c-.6.5-1.5.5-2.1 0z" fill="#e90d8c"/><path d="m12.4 69.9c-1.9-1.9-1.9-4.9 0-6.8s4.9-1.9 6.8 0 1.9 4.9 0 6.8-4.9 1.9-6.8 0z" fill="#fddb00"/><path d="m29 70.2c2.2.9 3.3 3.5 2.4 5.7s-3.5 3.3-5.7 2.4-3.3-3.5-2.4-5.7 3.5-3.3 5.7-2.4z" fill="#d6df27"/><path d="m71.2 53.9c.6-1.4 2.2-2.1 3.6-1.5s2.1 2.2 1.5 3.6-2.2 2.1-3.6 1.5-2.1-2.2-1.5-3.6z" fill="#1688c9"/><path d="m2.8 25.6c1.2-2.9 4.5-4.3 7.4-3.1s4.3 4.5 3.1 7.4-4.5 4.3-7.4 3.1-4.2-4.5-3.1-7.4z" fill="#f05b25"/><path d="m53.2 71c1.8-.7 3.8.1 4.6 1.9.7 1.8-.1 3.8-1.9 4.6-1.8.7-3.8-.1-4.6-1.9-.7-1.8.1-3.9 1.9-4.6z" fill="#5fbc69"/><path d="m72 28.5c-.4-1 .1-2.1 1-2.5 1-.4 2.1.1 2.5 1 .4 1-.1 2.1-1 2.5-1 .4-2.1-.1-2.5-1z" fill="#b33392"/><path d="m3.3 57c-1.1-2.7.2-5.7 2.8-6.8 2.7-1.1 5.7.2 6.8 2.8 1.1 2.7-.2 5.7-2.8 6.8-2.7 1.1-5.7-.2-6.8-2.8z" fill="#ffcb06"/><g fill="#e90d8c"><path d="m40.9 14.4c2.6 0 4.6 2.1 4.6 4.6 0 2.6-2.1 4.6-4.6 4.6-2.6 0-4.6-2.1-4.6-4.6s2.1-4.6 4.6-4.6z"/><path d="m40.9 28.8c1.9 0 3.5 1.6 3.5 3.5s-1.6 3.5-3.5 3.5-3.5-1.6-3.5-3.5c0-2 1.6-3.5 3.5-3.5z"/><path d="m40.9 43.2c1.3 0 2.3 1 2.3 2.3s-1 2.3-2.3 2.3-2.3-1-2.3-2.3 1-2.3 2.3-2.3z"/></g></svg>