<svg height="81" viewBox="0 0 294.8 80.8" width="295" xmlns="http://www.w3.org/2000/svg"><g fill="#9a9a9a"><path d="m136.3 39.7v13.1c0 1.6-1.3 2.7-3 2.7-1.8 0-3-1.2-3-2.7v-12.1c0-3-1.3-5-4.8-5-4.1 0-5.5 2.3-5.5 5.4v11.7c0 1.6-1.3 2.7-3 2.7s-3-1.2-3-2.7v-19.1c0-1.6 1.3-2.8 3-2.8 1.6 0 3 1.3 3 2.8 1-1.5 3.3-3.1 7-3.1 7.5 0 9.3 4.5 9.3 9.1z"/><path d="m144.5 26.9c0-1.5 1.3-2.8 2.9-2.8s2.9 1.3 2.9 2.8v4.4h2.5c1.4 0 2.5 1 2.5 2.4 0 1.3-1.1 2.4-2.5 2.4h-2.5v12.7c0 1.2 1.1 1.9 2.1 1.9 1.4 0 2.6 1.1 2.6 2.5s-1.1 2.5-2.6 2.5c-4.9 0-7.9-3-7.9-7.1v-12.6h-1.3c-1.4 0-2.5-1-2.5-2.4 0-1.3 1.1-2.4 2.5-2.4h1.3z"/><path d="m171.2 30.6c9.3 0 11 6.8 11 10.4 0 1.9 0 4.2-3.3 4.2h-13.5c0 3.8 2.8 5.5 6.4 5.5 2.4 0 4.1-.8 5.4-1.6.6-.4 1-.6 1.8-.6 1.4 0 2.6 1.1 2.6 2.5 0 .8-.4 1.5-.9 1.9-.9.8-3.8 2.9-8.8 2.9-7.6 0-12.3-3.9-12.3-12.7-.2-8 4.2-12.5 11.6-12.5zm-5.7 9.9h10.8c0-2.6-1.5-5.1-5.1-5.1-3.2 0-5.5 1.7-5.7 5.1z"/><path d="m193.3 34c1-2 3.6-3.3 5.9-3.3 1.5 0 2.8 1.2 2.8 2.7s-1.3 2.7-2.8 2.7c-3.8 0-5.9 2.3-5.9 5.8v10.9c0 1.6-1.3 2.8-3 2.8-1.6 0-3-1.3-3-2.8v-19.1c0-1.6 1.3-2.8 3-2.8 1.6 0 3 1.3 3 2.8z"/><path d="m208.7 24.9c0-.4.4-.8.8-.8s.8.4.8.8v6.4h4.9c.4 0 .7.3.7.7s-.3.7-.7.7h-4.9v16.6c0 3.1 1.9 4.8 4.5 4.8.4 0 .7.3.7.7s-.3.7-.7.7c-4 0-6.2-2.6-6.2-6.2v-16.6h-3.4c-.4 0-.7-.3-.7-.7s.3-.7.7-.7h3.4v-6.4z"/><path d="m232.5 30.6c9.1 0 10.3 6.5 10.3 10 0 .6 0 1.3-.1 1.9s-.5.8-1.2.8h-18.5c0 7.5 3.7 11 10.1 11 4.1 0 6.1-1.4 7.7-2.6.2-.1.3-.2.4-.2.4 0 .7.3.7.7 0 .3-.2.4-.3.6-.9.8-3.5 2.9-8.5 2.9-7.3 0-11.8-3.8-11.8-12.6 0-8.1 4.2-12.5 11.2-12.5zm0 1.3c-6.2 0-9.3 3.9-9.5 10.1h18.1s.1-1 .1-1.5c0-4.1-1.7-8.6-8.7-8.6z"/><path d="m259.1 30.6c5.4 0 7.6 2.8 8.1 3.5.1.2.2.3.2.5 0 .4-.3.7-.7.7-.3 0-.4-.1-.6-.3-.9-1-2.6-3-7-3-6.2 0-9.5 3.5-9.5 11.2 0 7.9 3.3 11.3 9.5 11.3 3.8 0 5.9-1.5 7.3-2.6.2-.1.3-.2.4-.2.4 0 .7.3.7.7 0 .2-.1.4-.3.6-1.1.8-3.7 2.8-8.1 2.8-7 0-11.2-4-11.2-12.6s4.2-12.6 11.2-12.6z"/><path d="m274.2 54.7v-36.1c0-.4.4-.8.8-.8s.8.4.8.8v17c.8-2.1 3.3-5 8.6-5 7.9 0 9.8 4.4 9.8 9.3v14.9c0 .4-.4.8-.8.8s-.8-.4-.8-.8v-15c0-4.2-1.5-7.9-8.2-7.9-6 0-8.5 4.3-8.5 8.4v14.3c0 .4-.4.8-.8.8-.5.1-.9-.3-.9-.7z"/><path d="m107.4 52.7c0 1.6-1.3 2.8-3 2.8-1.6 0-3-1.3-3-2.8v-19c0-1.6 1.3-2.8 3-2.8 1.6 0 3 1.3 3 2.8z"/><path d="m104.4 28.5c2 0 3.6-1.6 3.6-3.6s-1.6-3.6-3.6-3.6-3.6 1.6-3.6 3.6 1.6 3.6 3.6 3.6z"/><path d="m40.9 73c2.2 0 3.9 1.8 3.9 3.9s-1.8 3.9-3.9 3.9-3.9-1.8-3.9-3.9 1.8-3.9 3.9-3.9z"/><path d="m40.9 0c3.2 0 5.8 2.6 5.8 5.8s-2.6 5.8-5.8 5.8-5.8-2.6-5.8-5.8 2.6-5.8 5.8-5.8z"/><path d="m74.2 41.4c0-1.3 1-2.3 2.3-2.3s2.3 1 2.3 2.3-1 2.3-2.3 2.3-2.3-1.1-2.3-2.3z"/><path d="m0 41.4c0-3 2.4-5.4 5.4-5.4s5.4 2.4 5.4 5.4-2.4 5.4-5.4 5.4-5.4-2.5-5.4-5.4z"/><path d="m63.9 64.4c1.2-1.2 3.1-1.2 4.3 0s1.2 3.1 0 4.3-3.1 1.2-4.3 0-1.2-3.2 0-4.3z"/><path d="m11.7 12.1c2.3-2.3 5.9-2.3 8.2 0s2.3 5.9 0 8.2-5.9 2.3-8.2 0c-2.3-2.2-2.3-5.9 0-8.2z"/><path d="m65 17.3c-.6-.6-.6-1.5 0-2.1s1.5-.6 2.1 0 .6 1.5 0 2.1c-.6.5-1.5.5-2.1 0z"/><path d="m12.4 69.9c-1.9-1.9-1.9-4.9 0-6.8s4.9-1.9 6.8 0 1.9 4.9 0 6.8-4.9 1.9-6.8 0z"/><path d="m29 70.2c2.2.9 3.3 3.5 2.4 5.7s-3.5 3.3-5.7 2.4-3.3-3.5-2.4-5.7 3.5-3.3 5.7-2.4z"/><path d="m71.2 53.9c.6-1.4 2.2-2.1 3.6-1.5s2.1 2.2 1.5 3.6-2.2 2.1-3.6 1.5-2.1-2.2-1.5-3.6z"/><path d="m2.8 25.6c1.2-2.9 4.5-4.3 7.4-3.1s4.3 4.5 3.1 7.4-4.5 4.3-7.4 3.1-4.2-4.5-3.1-7.4z"/><path d="m53.2 71c1.8-.7 3.8.1 4.6 1.9.7 1.8-.1 3.8-1.9 4.6-1.8.7-3.8-.1-4.6-1.9-.7-1.8.1-3.9 1.9-4.6z"/><path d="m72 28.5c-.4-1 .1-2.1 1-2.5 1-.4 2.1.1 2.5 1 .4 1-.1 2.1-1 2.5-1 .4-2.1-.1-2.5-1z"/><path d="m3.3 57c-1.1-2.7.2-5.7 2.8-6.8 2.7-1.1 5.7.2 6.8 2.8 1.1 2.7-.2 5.7-2.8 6.8-2.7 1.1-5.7-.2-6.8-2.8z"/><path d="m40.9 14.4c2.6 0 4.6 2.1 4.6 4.6 0 2.6-2.1 4.6-4.6 4.6-2.6 0-4.6-2.1-4.6-4.6s2.1-4.6 4.6-4.6z"/><path d="m40.9 28.8c1.9 0 3.5 1.6 3.5 3.5s-1.6 3.5-3.5 3.5-3.5-1.6-3.5-3.5c0-2 1.6-3.5 3.5-3.5z"/><path d="m40.9 43.1c1.3 0 2.3 1 2.3 2.3s-1 2.3-2.3 2.3-2.3-1-2.3-2.3 1-2.3 2.3-2.3z"/></g></svg>