<?xml version="1.0" standalone="no"?>
<!DOCTYPE svg PUBLIC "-//W3C//DTD SVG 20010904//EN"
 "http://www.w3.org/TR/2001/REC-SVG-20010904/DTD/svg10.dtd">
<svg version="1.0" xmlns="http://www.w3.org/2000/svg"
 width="337.000000pt" height="337.000000pt" viewBox="0 0 337.000000 337.000000"
 preserveAspectRatio="xMidYMid meet">
<metadata>
Created by potrace 1.11, written by Peter Selinger 2001-2013
</metadata>
<g transform="translate(0.000000,337.000000) scale(0.100000,-0.100000)"
fill="#000000" stroke="none">
<path d="M1653 3352 c-92 -37 -146 -119 -147 -222 -2 -139 101 -243 239 -243
222 0 327 270 164 417 -73 66 -168 84 -256 48z"/>
<path d="M613 2923 c-23 -8 -57 -29 -76 -47 -124 -116 -103 -309 42 -394 38
-22 58 -27 116 -27 47 0 82 6 107 19 181 88 182 346 4 438 -49 25 -137 30
-193 11z"/>
<path d="M1686 2761 c-90 -32 -136 -100 -132 -194 5 -108 82 -182 191 -182 50
0 68 5 105 30 86 58 112 157 65 251 -44 87 -139 127 -229 95z"/>
<path d="M2775 2753 c-47 -9 -57 -91 -14 -113 47 -26 108 24 90 73 -8 22 -42
50 -53 46 -2 -1 -12 -4 -23 -6z"/>
<path d="M283 2431 c-150 -69 -190 -252 -81 -375 91 -105 260 -105 351 -1 82
94 78 245 -10 327 -69 65 -179 86 -260 49z"/>
<path d="M3072 2283 c-19 -8 -40 -55 -36 -83 6 -38 47 -69 86 -65 51 7 73 38
69 98 -3 42 -69 70 -119 50z"/>
<path d="M1714 2166 c-51 -14 -77 -33 -98 -73 -64 -125 68 -259 194 -195 89
44 108 162 37 233 -37 36 -83 48 -133 35z"/>
<path d="M175 1851 c-88 -39 -138 -121 -134 -214 9 -201 256 -291 388 -141
102 116 69 283 -71 355 -48 24 -130 25 -183 0z"/>
<path d="M3163 1715 c-40 -40 -44 -88 -12 -129 38 -49 104 -49 153 -1 26 26
21 101 -9 130 -13 14 -32 25 -42 26 -10 0 -27 2 -37 4 -12 2 -32 -9 -53 -30z"/>
<path d="M1728 1572 c-58 -7 -94 -86 -67 -145 21 -46 105 -63 144 -29 77 66
24 187 -77 174z"/>
<path d="M305 1288 c-155 -55 -196 -256 -76 -368 92 -86 231 -77 313 19 58 68
69 161 28 241 -47 93 -169 142 -265 108z"/>
<path d="M3085 1191 c-103 -32 -116 -170 -21 -215 79 -37 166 20 166 108 0 68
-81 127 -145 107z"/>
<path d="M620 784 c-130 -56 -164 -229 -64 -327 88 -87 237 -72 309 31 26 39
30 52 29 110 -1 49 -7 77 -22 102 -51 85 -163 123 -252 84z"/>
<path d="M2732 710 c-45 -27 -67 -66 -66 -116 3 -99 113 -157 195 -101 41 27
59 60 59 107 0 40 -29 93 -59 110 -38 20 -96 20 -129 0z"/>
<path d="M1110 447 c-56 -30 -69 -43 -90 -80 -42 -75 -22 -183 44 -231 89 -66
205 -48 266 41 21 30 25 49 25 104 0 60 -3 71 -31 106 -17 21 -44 44 -60 52
-41 21 -124 25 -154 8z"/>
<path d="M2266 415 c-44 -16 -63 -31 -81 -65 -58 -112 36 -239 159 -216 47 9
103 65 112 112 21 111 -85 205 -190 169z"/>
<path d="M1665 307 c-45 -25 -85 -92 -85 -142 0 -17 10 -51 23 -75 76 -151
307 -94 307 75 0 124 -136 202 -245 142z"/>
</g>
</svg>
